<?xml version="1.0" encoding="UTF-8" standalone="no"?>
<!DOCTYPE svg PUBLIC "-//W3C//DTD SVG 1.1//EN" "http://www.w3.org/Graphics/SVG/1.1/DTD/svg11.dtd">
<svg version="1.1" xmlns="http://www.w3.org/2000/svg" xmlns:xlink="http://www.w3.org/1999/xlink" preserveAspectRatio="xMidYMid meet" viewBox="0 0 640 640" width="640" height="640"><defs><path d="M19.19 9.95C19.19 14.17 15.67 17.59 11.34 17.59C7.01 17.59 3.49 14.17 3.49 9.95C3.49 5.73 7.01 2.3 11.34 2.3C15.67 2.3 19.19 5.73 19.19 9.95Z" id="f1qELUmkFO"></path><path d="M43.73 9.95C43.73 14.17 40.22 17.59 35.88 17.59C31.55 17.59 28.03 14.17 28.03 9.95C28.03 5.73 31.55 2.3 35.88 2.3C40.22 2.3 43.73 5.73 43.73 9.95Z" id="c3dUYYBsj"></path><path d="M68.64 9.95C68.64 14.17 65.12 17.59 60.79 17.59C56.46 17.59 52.94 14.17 52.94 9.95C52.94 5.73 56.46 2.3 60.79 2.3C65.12 2.3 68.64 5.73 68.64 9.95Z" id="a2ZpRYxOWK"></path></defs><g><g><g><use xlink:href="#f1qELUmkFO" opacity="1" fill="#e61a1a" fill-opacity="1"></use></g><g><use xlink:href="#c3dUYYBsj" opacity="1" fill="#f0e300" fill-opacity="1"></use></g><g><use xlink:href="#a2ZpRYxOWK" opacity="1" fill="#63f017" fill-opacity="1"></use></g></g></g></svg>